<?xml version="1.0" encoding="UTF-8"?>
<svg width="45px" height="43px" viewBox="0 0 45 43" version="1.1" xmlns="http://www.w3.org/2000/svg" xmlns:xlink="http://www.w3.org/1999/xlink">
    <!-- Generator: Sketch 49.2 (51160) - http://www.bohemiancoding.com/sketch -->
    <title>我的-消息</title>
    <desc>Created with Sketch.</desc>
    <defs>
        <filter x="-1.0%" y="-20.0%" width="102.1%" height="140.0%" filterUnits="objectBoundingBox" id="filter-1">
            <feOffset dx="0" dy="0" in="SourceAlpha" result="shadowOffsetOuter1"></feOffset>
            <feGaussianBlur stdDeviation="5" in="shadowOffsetOuter1" result="shadowBlurOuter1"></feGaussianBlur>
            <feColorMatrix values="0 0 0 0 0.819760101   0 0 0 0 0.828509611   0 0 0 0 1  0 0 0 1 0" type="matrix" in="shadowBlurOuter1" result="shadowMatrixOuter1"></feColorMatrix>
            <feMerge>
                <feMergeNode in="shadowMatrixOuter1"></feMergeNode>
                <feMergeNode in="SourceGraphic"></feMergeNode>
            </feMerge>
        </filter>
    </defs>
    <g id="Symbols" stroke="none" stroke-width="1" fill="none" fill-rule="evenodd">
        <g id="最上面" transform="translate(-1270.000000, -13.000000)" fill="#BBBBBB">
            <g id="Navigation">
                <g filter="url(#filter-1)">
                    <g id="Group-6" transform="translate(1270.000000, 6.000000)">
                        <g id="消息" transform="translate(10.000000, 0.000000)">
                            <g id="Group-4" transform="translate(0.000000, 17.000000)">
                                <g id="我的-消息">
                                    <g id="Shape">
                                        <path d="M22.4034447,0 L2.47912317,0 C1.10908142,0 0,1.08853007 0,2.35634744 L0,17.6982183 C0,18.9660356 1.10908142,20.0545657 2.49217119,20.0545657 L9.35542797,20.0545657 C9.35542797,20.0545657 9.53810021,20.233853 9.78601253,20.5668151 C9.86430063,20.6436526 9.96868476,20.7461024 10.0469729,20.8997773 C10.0469729,20.8997773 10.2296451,21.155902 10.3079332,21.2327394 C11.0777662,22.4237194 11.6779749,23 12.6304802,23 C13.5829854,23 14.2614823,22.4109131 15.0313152,21.2327394 C15.631524,20.2978842 15.8011482,20.0417595 15.8011482,20.0417595 L22.5078288,20.0417595 C23.8778706,20.0417595 25,18.9532294 25,17.685412 L25,2.35634744 C24.8825678,1.01169265 23.7734864,0 22.4034447,0 Z M5.98903967,11.8841871 C5.2322547,11.8841871 4.61899791,11.282294 4.61899791,10.5395323 C4.61899791,9.7967706 5.2322547,9.19487751 5.98903967,9.19487751 C6.74582463,9.19487751 7.35908142,9.7967706 7.35908142,10.5395323 C7.35908142,11.282294 6.75887265,11.8841871 5.98903967,11.8841871 Z M12.4347599,11.8841871 C11.6779749,11.8841871 11.0647182,11.282294 11.0647182,10.5395323 C11.0647182,9.7967706 11.6779749,9.19487751 12.4347599,9.19487751 C13.1915449,9.19487751 13.8048017,9.7967706 13.8048017,10.5395323 C13.8048017,11.282294 13.1915449,11.8841871 12.4347599,11.8841871 Z M18.8021921,11.8841871 C18.0454071,11.8841871 17.4321503,11.282294 17.4321503,10.5395323 C17.4321503,9.7967706 18.0454071,9.19487751 18.8021921,9.19487751 C19.558977,9.19487751 20.1722338,9.7967706 20.1722338,10.5395323 C20.1722338,11.282294 19.558977,11.8841871 18.8021921,11.8841871 Z" fill-rule="nonzero"></path>
                                    </g>
                                </g>
                            </g>
                        </g>
                    </g>
                </g>
            </g>
        </g>
    </g>
</svg>