<?xml version="1.0" encoding="UTF-8"?>
<svg width="26px" height="26px" viewBox="0 0 26 26" version="1.1" xmlns="http://www.w3.org/2000/svg" xmlns:xlink="http://www.w3.org/1999/xlink">
    <title>下载历史</title>
    <defs></defs>
    <g stroke="none" stroke-width="1" fill-rule="evenodd">
        <g transform="translate(-1125, -386)" fill="#BBBBBB">
            <g transform="translate(1114, 385)">
                <g transform="translate(11, 1)">
                    <path d="M22.75,0 C24.5449254,1.4237354e-16 26,1.45507456 26,3.25 L26,22.75 C26,24.5449254 24.5449254,26 22.75,26 L3.25,26 C1.45507456,26 2.19814969e-16,24.5449254 0,22.75 L0,3.25 C2.19814969e-16,1.45507456 1.45507456,-7.75301454e-17 3.25,0 L22.75,0 Z M13.1311334,1.75234324 C6.95902806,1.75234324 1.95549363,6.75587767 1.95549363,12.927983 C1.95549363,19.1000883 6.95902806,24.1036227 13.1311334,24.1036227 C19.3032387,24.1036227 24.3067731,19.1000883 24.3067731,12.927983 C24.3067731,6.75587767 19.3032387,1.75234324 13.1311334,1.75234324 Z M13.1311334,22.7299447 C7.73897491,22.7299447 3.35346064,18.3228402 3.35346064,12.9306818 C3.35346064,7.5385233 7.73897491,3.15300903 13.1311334,3.15300903 C18.5232918,3.15300903 22.9088061,7.5385233 22.9088061,12.9306818 C22.9088061,18.3201414 18.5232918,22.7299447 13.1311334,22.7299447 Z M8.46461063,12.1235584 C8.24949667,12.3371342 8.24949667,12.6832112 8.46461063,12.896787 L12.5827061,16.9822144 C12.6836003,17.0927253 12.8279351,17.162924 12.9894359,17.162924 C13.1448668,17.1625408 13.2928293,17.0967315 13.396516,16.9818669 L17.5149617,12.8971345 C17.6558803,12.7594096 17.7115674,12.5573227 17.6608694,12.3676391 C17.6101715,12.1779556 17.4608683,12.0297828 17.2696745,11.979406 C17.0784808,11.9290293 16.8747356,11.984179 16.7358342,12.1239059 L13.5408508,15.2932745 L13.5408508,7.29617903 C13.5408508,6.99427446 13.2941308,6.74953244 12.9897862,6.74953244 C12.6854416,6.74953244 12.4387216,6.99427446 12.4387216,7.29617903 L12.4387216,15.2925795 L9.2440885,12.1235584 C9.0287866,11.910169 8.67991254,11.910169 8.46461063,12.1235584 Z M18.7456609,19.2504676 C19.0444984,19.2429915 19.2828325,19.0005306 19.2828325,18.7039947 C19.2828325,18.4074589 19.0444984,18.164998 18.7456609,18.1575219 L7.23601339,18.1575219 C6.93176556,18.1575219 6.68512397,18.4021861 6.68512397,18.7039947 C6.68512397,19.0058034 6.93176556,19.2504676 7.23601339,19.2504676 L18.7456609,19.2504676 Z" id="Shape" fill-rule="nonzero"></path>
                </g>
            </g>
        </g>
    </g>
</svg>