<svg xmlns="http://www.w3.org/2000/svg" xmlns:xlink="http://www.w3.org/1999/xlink" viewBox="0 0 620.41 154.5"><defs><style>.cls-1{fill:url(#未命名的渐变_50);}</style><linearGradient id="未命名的渐变_50" x1="39.29" y1="-2.87" x2="112.04" y2="-2.87" gradientTransform="translate(-39.29 39.24)" gradientUnits="userSpaceOnUse"><stop offset="0" stop-color="#333"/><stop offset="1" stop-color="gray"/></linearGradient></defs><title>资源 2</title><g id="图层_2" data-name="图层 2"><g id="图层_1-2" data-name="图层 1"><path d="M503.72,27c-7.72,0-13.65,1.38-18.62,4.32a15.6,15.6,0,0,0-2.2,1.42.94.94,0,0,0-.14.13l-.22.16a1.18,1.18,0,0,0-.3.29,7.91,7.91,0,0,0-1.31,10,9.06,9.06,0,0,0,10.68,3.5,1.49,1.49,0,0,0,.39-.13l.29-.15c.81-.42,1.63-.8,2.46-1.13a28.7,28.7,0,0,1,7.49-1.59c.48,0,1,0,1.48,0a26.06,26.06,0,1,1-25,18.57,1.37,1.37,0,0,0,.22-.68,24.85,24.85,0,0,1,1.34-3.29l.06-.13c.47-.92,1-1.95,1.63-3a8.88,8.88,0,0,0-2.92-11.76,7.29,7.29,0,0,0-10.21,1.6c-.32.41-.62.81-.91,1.21a1.53,1.53,0,0,0-.26.31l-.51.82A30.56,30.56,0,0,0,465,51.3l-.14.3a1.61,1.61,0,0,0-.09.29,42.42,42.42,0,0,0-4,18A42.88,42.88,0,1,0,503.72,27Zm0,80.43a37.53,37.53,0,0,1-32.09-57c.48-.73.95-1.39,1.44-2a2.15,2.15,0,0,1,1.7-1,2.45,2.45,0,0,1,1.36.47,3.59,3.59,0,0,1,1.25,4.73c-2.11,3.74-3.37,6.5-3.64,8a31,31,0,0,0-1.4,9.25,31.39,31.39,0,1,0,31.38-31.38h-.13a1.29,1.29,0,0,0-.44,0l-.34,0a27.62,27.62,0,0,0-9.12,1.66,22.07,22.07,0,0,0-3.51,1.51,3.66,3.66,0,0,1-4.79-1.25,2.83,2.83,0,0,1,.73-3.44,37,37,0,0,1,6.24-3l-.42-1.39L492.5,34c.55-.19,1-.32,1.19-.38l.13,0a34,34,0,0,1,9.9-1.21,37.55,37.55,0,0,1,0,75.1Z"/><path d="M180.27,69.33a23.6,23.6,0,0,0-5.42-2.13c4-2.71,9.72-7.82,9.72-17.35,0-15.1-11.58-23-23-23H134.61c-4.09,0-6.7,4.33-6.7,7.32v76.08a1.45,1.45,0,0,0,1.45,1.45h2.43a1.45,1.45,0,0,0,1.45-1.45V34.17c0-.75.85-2,1.37-2h26.95c8.79,0,17.68,6.08,17.68,17.68,0,8.54-5.88,12.09-9.39,14.21-1.82,1.09-3.26,2-3.26,3.83,0,2.85,2.75,3.48,5,4A22.81,22.81,0,0,1,177.69,74c4.65,2.57,8.94,6.41,8.94,17,0,11.83-9.73,16.24-15.86,16.24h-25.4c-2.09,0-2.37-1-2.37-1.94V73a1.15,1.15,0,0,1,1-1.18h5.2a1.45,1.45,0,0,0,1.45-1.45V67.94a1.45,1.45,0,0,0-1.45-1.45H144A6.52,6.52,0,0,0,137.67,73v32.32c0,3.61,2.38,7.26,7.7,7.26h25.4C181,112.58,192,105,192,91,192,77.53,185.71,72.34,180.27,69.33Z"/><path d="M241,27c-7.72,0-13.65,1.38-18.62,4.32a14.52,14.52,0,0,0-2.2,1.42l-.2.16-.17.13a1.42,1.42,0,0,0-.3.3,7.9,7.9,0,0,0-1.3,10,9,9,0,0,0,10.67,3.5,1.44,1.44,0,0,0,.4-.13l.29-.15A25.92,25.92,0,0,1,232,45.44a28.64,28.64,0,0,1,7.48-1.59c.49,0,1,0,1.49,0a26.06,26.06,0,1,1-25,18.57,1.48,1.48,0,0,0,.22-.68,26.26,26.26,0,0,1,1.33-3.29l.07-.13c.46-.92,1-1.94,1.63-3a8.88,8.88,0,0,0-2.92-11.76,7.29,7.29,0,0,0-10.21,1.6c-.33.41-.63.81-.92,1.22a1.52,1.52,0,0,0-.26.3l-.21.34c-.08.12-.15.24-.22.36l-.07.12a32.87,32.87,0,0,0-2.18,3.87l-.13.3a1.61,1.61,0,0,0-.09.29,42.43,42.43,0,0,0-4,18A42.88,42.88,0,1,0,241,27Zm0,80.43a37.53,37.53,0,0,1-32.1-57c.48-.72,1-1.4,1.44-2a2.18,2.18,0,0,1,1.7-1,2.51,2.51,0,0,1,1.37.47,3.59,3.59,0,0,1,1.24,4.73c-2.11,3.74-3.36,6.49-3.64,8a31.38,31.38,0,1,0,30-22.13h-.14a1.28,1.28,0,0,0-.44,0l-.33,0A27.68,27.68,0,0,0,231,40.16a22.89,22.89,0,0,0-3.51,1.51,3.66,3.66,0,0,1-4.79-1.25,2.82,2.82,0,0,1,.74-3.44,37,37,0,0,1,6.24-3l-.42-1.39h0l.55,1.35c.56-.19,1-.32,1.19-.38l.13,0A34.12,34.12,0,0,1,241,32.32a37.55,37.55,0,0,1,0,75.1Z"/><path d="M362.52,27.12H348.06a1.44,1.44,0,0,0-1.44,1.45v2.74a1.44,1.44,0,0,0,1.44,1.45h14.46c2.84,0,4.11,1.47,4.11,2.92a2.28,2.28,0,0,1-.78,1.72,4.92,4.92,0,0,1-3.33,1H344.69c-7.67,0-10.81,3.13-10.81,10.81v61.47a1.45,1.45,0,0,0,1.45,1.45h2.75a1.45,1.45,0,0,0,1.45-1.45V49.21c0-4.82.71-5.17,5.16-5.17h17.83a10.38,10.38,0,0,0,7.11-2.45,7.87,7.87,0,0,0,2.65-5.91C372.28,31.42,368.93,27.12,362.52,27.12Z"/><path d="M318.1,44H294.82a1.45,1.45,0,0,0-1.45,1.45v2.75a1.45,1.45,0,0,0,1.45,1.45H318.1c4.18,0,4.87.74,4.87,5.31V94.46a1.44,1.44,0,0,0,1.45,1.44h2.74a1.44,1.44,0,0,0,1.45-1.44V54.93C328.61,47.25,325.47,44,318.1,44Z"/><path d="M446.8,27.12H432.34a1.44,1.44,0,0,0-1.45,1.45v2.74a1.45,1.45,0,0,0,1.45,1.45H446.8c2.84,0,4.11,1.47,4.11,2.92a2.33,2.33,0,0,1-.78,1.72,5,5,0,0,1-3.33,1H429c-7.68,0-10.81,3.13-10.81,10.81v61.47a1.45,1.45,0,0,0,1.45,1.45h2.74a1.45,1.45,0,0,0,1.45-1.45V49.21c0-4.82.72-5.17,5.17-5.17H446.8a10.42,10.42,0,0,0,7.11-2.45,7.9,7.9,0,0,0,2.64-5.91C456.55,31.42,453.2,27.12,446.8,27.12Z"/><path d="M402.37,44H379.1a1.45,1.45,0,0,0-1.45,1.45v2.75a1.45,1.45,0,0,0,1.45,1.45h23.27c4.19,0,4.87.74,4.87,5.31V94.46a1.44,1.44,0,0,0,1.45,1.44h2.75a1.44,1.44,0,0,0,1.45-1.44V54.93C412.89,47.25,409.74,44,402.37,44Z"/><path d="M602.33,66.8h0c-1.66-.65-3.51-1.31-5.47-2C587.12,61.33,575,57,576.2,50.1a9.2,9.2,0,0,1,5.33-7,14.94,14.94,0,0,1,13,.42A37.6,37.6,0,0,1,605.46,53.6l.18.26a1.46,1.46,0,0,0,2,.38l2.27-1.55a1.46,1.46,0,0,0,.38-2l-.19-.27A42.76,42.76,0,0,0,597.3,38.64,20.89,20.89,0,0,0,579.12,38a14.66,14.66,0,0,0-8.48,11.11c-2,11.62,12.58,16.81,24.33,21l.06,0,.05,0c1.87.67,3.64,1.3,5.18,1.9,9.41,3.7,14.56,10.1,14.5,18-.08,12.12-10.69,16.75-19.75,17-14.29.44-25.79-10-25.9-10.06l-.24-.23a1.45,1.45,0,0,0-2,.07l-1.88,2a1.43,1.43,0,0,0,.07,2l.24.23c.5.47,12.57,11.6,28.82,11.6l1.11,0c17.32-.54,25.14-11.75,25.22-22.63C620.48,79.69,614.06,71.41,602.33,66.8Z"/><path d="M566.25,43.88l0-.29c0-.29,1.08-7,13.71-10.42h0c14.41-3.94,25.57,5.08,28.65,7.94A66.06,66.06,0,0,1,614.17,48l.19.26a1.45,1.45,0,0,0,1.18.62,1.47,1.47,0,0,0,.84-.27L618.62,47a1.46,1.46,0,0,0,.35-2l-.2-.29A97.52,97.52,0,0,0,612.52,37c-5.34-5.45-18.53-13.54-34-9.31-16.67,4.55-17.8,14.88-17.83,15.33l0,.33a1.39,1.39,0,0,0,.33,1,1.42,1.42,0,0,0,1,.51l2.73.24A1.46,1.46,0,0,0,566.25,43.88Z"/><path d="M590.22,96.3c-6.93-1.65-13.35-7.13-13.41-7.19l-.25-.21a1.45,1.45,0,0,0-2,.15l-1.8,2.08a1.49,1.49,0,0,0-.35,1.05,1.44,1.44,0,0,0,.5,1l.25.22c.3.26,7.5,6.43,15.79,8.4a20.74,20.74,0,0,0,4.77.59,13.88,13.88,0,0,0,12.19-6.5c3.35-5.16,1.16-11.28-1.47-14-6.59-6.77-20-10.8-20.58-11l-.32-.1a1.44,1.44,0,0,0-1.79,1l-.79,2.63a1.45,1.45,0,0,0,1,1.8l.32.1c.12,0,12.64,3.85,18.14,9.5,1.11,1.14,2.48,4.35.78,7C598.31,97.17,593.64,97.11,590.22,96.3Z"/><circle class="cls-1" cx="36.37" cy="36.37" r="36.37"/><path d="M70.33,62.2h0l-.26-.13a47.21,47.21,0,0,0-5.39-2.39C58.16,56.9,45.9,52.05,27.56,46.22-.33,37.35,12.63,8.82,12.63,8.82S0,19.29,0,36.37V104.7A48,48,0,1,0,70.33,62.2Z"/><path d="M126.64,148.59V128.5h2.73l10.55,15.78V128.5h2.55v20.09h-2.73L129.19,132.8v15.79Z"/><path d="M173.88,143.91l2.55.31a6.24,6.24,0,0,1-2.23,3.47,6.75,6.75,0,0,1-4.17,1.23,6.64,6.64,0,0,1-5.06-2,7.69,7.69,0,0,1-1.88-5.52,8,8,0,0,1,1.9-5.7,6.36,6.36,0,0,1,4.9-2,6.2,6.2,0,0,1,4.77,2,7.84,7.84,0,0,1,1.85,5.59c0,.14,0,.36,0,.66H165.64a5.59,5.59,0,0,0,1.36,3.67,4,4,0,0,0,3,1.27,3.74,3.74,0,0,0,2.32-.71A4.66,4.66,0,0,0,173.88,143.91Zm-8.1-4h8.13a4.94,4.94,0,0,0-.93-2.76,3.79,3.79,0,0,0-3.06-1.42,3.92,3.92,0,0,0-2.86,1.14A4.48,4.48,0,0,0,165.78,139.92Z"/><path d="M199.51,148.59,195.05,134h2.55l2.32,8.4.86,3.12.76-3,2.31-8.52h2.54l2.18,8.44.72,2.78.84-2.81,2.49-8.41H215l-4.55,14.55h-2.56l-2.32-8.71L205,137.4l-2.95,11.19Z"/><path d="M256,148.59l7.71-20.09h2.87l8.22,20.09h-3l-2.34-6.08h-8.4l-2.21,6.08Zm5.79-8.25h6.82l-2.1-5.56c-.64-1.69-1.12-3.08-1.43-4.17a24.46,24.46,0,0,1-1.08,3.84Z"/><path d="M294.71,148.59V128.5h2.66v20.09Z"/><path d="M344.49,148.59V128.5H359v2.37H347.15V137h11.12v2.35H347.15v6.84h12.34v2.37Z"/><path d="M389.64,143.26l2.42.32a6.24,6.24,0,0,1-2,3.92,5.9,5.9,0,0,1-4,1.42A6.25,6.25,0,0,1,381.2,147a7.93,7.93,0,0,1-1.81-5.6,10.1,10.1,0,0,1,.78-4.12,5.47,5.47,0,0,1,2.37-2.66,7.09,7.09,0,0,1,3.48-.88,6.05,6.05,0,0,1,3.88,1.2,5.49,5.49,0,0,1,1.93,3.4l-2.4.37a4,4,0,0,0-1.21-2.2,3.11,3.11,0,0,0-2.11-.74,3.8,3.8,0,0,0-3,1.33,6.32,6.32,0,0,0-1.17,4.23,6.59,6.59,0,0,0,1.12,4.26,3.66,3.66,0,0,0,2.94,1.33,3.4,3.4,0,0,0,2.42-.89A4.42,4.42,0,0,0,389.64,143.26Z"/><path d="M410.55,141.32q0-4,2.25-6a6.74,6.74,0,0,1,4.57-1.62,6.51,6.51,0,0,1,4.91,2,7.48,7.48,0,0,1,1.91,5.43,9.64,9.64,0,0,1-.85,4.42,6,6,0,0,1-2.45,2.5,7.08,7.08,0,0,1-3.52.89,6.55,6.55,0,0,1-4.94-2A7.84,7.84,0,0,1,410.55,141.32Zm2.53,0a6.19,6.19,0,0,0,1.22,4.18,4.07,4.07,0,0,0,6.13,0,6.4,6.4,0,0,0,1.22-4.27,6,6,0,0,0-1.23-4.09,4.07,4.07,0,0,0-6.12,0A6.22,6.22,0,0,0,413.08,141.32Z"/><path d="M443.38,144.25l2.44-.38a3.41,3.41,0,0,0,1.15,2.24,4,4,0,0,0,2.62.78,3.83,3.83,0,0,0,2.52-.69,2.07,2.07,0,0,0,.83-1.62,1.51,1.51,0,0,0-.73-1.32,10.44,10.44,0,0,0-2.52-.83,23.55,23.55,0,0,1-3.76-1.19,3.6,3.6,0,0,1-1.59-1.38,3.79,3.79,0,0,1-.1-3.76,4.11,4.11,0,0,1,1.21-1.38A5.36,5.36,0,0,1,447,134a7.77,7.77,0,0,1,2.13-.29,8.37,8.37,0,0,1,3,.49,4.07,4.07,0,0,1,1.91,1.34,5,5,0,0,1,.85,2.25l-2.41.33a2.65,2.65,0,0,0-.95-1.75,3.5,3.5,0,0,0-2.23-.63,4,4,0,0,0-2.42.56,1.61,1.61,0,0,0-.73,1.31,1.39,1.39,0,0,0,.3.87,2.28,2.28,0,0,0,.95.66c.24.09,1,.3,2.18.63a29.15,29.15,0,0,1,3.65,1.14,3.68,3.68,0,0,1,1.62,1.3,3.55,3.55,0,0,1,.59,2.11,4.14,4.14,0,0,1-.72,2.32,4.66,4.66,0,0,1-2.07,1.69,7.71,7.71,0,0,1-3.07.59,6.81,6.81,0,0,1-4.33-1.18A5.5,5.5,0,0,1,443.38,144.25Z"/><path d="M475.59,154.2l-.28-2.32a5.35,5.35,0,0,0,1.42.22,2.74,2.74,0,0,0,1.31-.27,2.21,2.21,0,0,0,.81-.77,11.16,11.16,0,0,0,.75-1.84l.22-.6L474.3,134H477l3,8.43c.39,1.07.74,2.19,1.05,3.37a33.58,33.58,0,0,1,1-3.32l3.11-8.48h2.47l-5.54,14.8a29.28,29.28,0,0,1-1.39,3.3,4.8,4.8,0,0,1-1.5,1.79,3.58,3.58,0,0,1-2,.57A4.92,4.92,0,0,1,475.59,154.2Z"/><path d="M506,144.25l2.44-.38a3.4,3.4,0,0,0,1.14,2.24,4,4,0,0,0,2.63.78,3.87,3.87,0,0,0,2.52-.69,2.05,2.05,0,0,0,.82-1.62,1.49,1.49,0,0,0-.73-1.32,10.1,10.1,0,0,0-2.52-.83,23.55,23.55,0,0,1-3.76-1.19,3.6,3.6,0,0,1-1.59-1.38,3.68,3.68,0,0,1-.54-2,3.8,3.8,0,0,1,.44-1.8,4.14,4.14,0,0,1,1.22-1.38,5.12,5.12,0,0,1,1.57-.72,7.67,7.67,0,0,1,2.13-.29,8.45,8.45,0,0,1,3,.49,4.12,4.12,0,0,1,1.91,1.34,5.27,5.27,0,0,1,.85,2.25l-2.41.33a2.62,2.62,0,0,0-1-1.75,3.45,3.45,0,0,0-2.22-.63,4,4,0,0,0-2.43.56,1.64,1.64,0,0,0-.73,1.31,1.35,1.35,0,0,0,.31.87,2.24,2.24,0,0,0,.94.66c.25.09,1,.3,2.18.63a28.59,28.59,0,0,1,3.65,1.14,3.71,3.71,0,0,1,1.63,1.3,3.62,3.62,0,0,1,.59,2.11,4.14,4.14,0,0,1-.72,2.32,4.63,4.63,0,0,1-2.08,1.69,7.68,7.68,0,0,1-3.07.59,6.8,6.8,0,0,1-4.32-1.18A5.41,5.41,0,0,1,506,144.25Z"/><path d="M543.74,146.39l.35,2.18a9.53,9.53,0,0,1-1.86.22,4.22,4.22,0,0,1-2.08-.43,2.36,2.36,0,0,1-1-1.12,8.85,8.85,0,0,1-.3-2.91V136H537V134h1.81v-3.61l2.46-1.48V134h2.48V136h-2.48v8.51a4.28,4.28,0,0,0,.13,1.36.91.91,0,0,0,.42.47,1.64,1.64,0,0,0,.84.18A8.59,8.59,0,0,0,543.74,146.39Z"/><path d="M573.41,143.91l2.55.31a6.25,6.25,0,0,1-2.24,3.47,7.59,7.59,0,0,1-9.23-.73,7.69,7.69,0,0,1-1.87-5.52,8,8,0,0,1,1.89-5.7,6.38,6.38,0,0,1,4.91-2,6.23,6.23,0,0,1,4.77,2,7.89,7.89,0,0,1,1.85,5.59c0,.14,0,.36,0,.66H565.17a5.54,5.54,0,0,0,1.36,3.67,4,4,0,0,0,3,1.27,3.76,3.76,0,0,0,2.32-.71A4.8,4.8,0,0,0,573.41,143.91Zm-8.1-4h8.12a4.94,4.94,0,0,0-.93-2.76,3.77,3.77,0,0,0-3.06-1.42,3.9,3.9,0,0,0-2.85,1.14A4.48,4.48,0,0,0,565.31,139.92Z"/><path d="M596.35,148.59V134h2.2v2a5.21,5.21,0,0,1,1.83-1.72,5.13,5.13,0,0,1,2.59-.65,4.78,4.78,0,0,1,2.65.67,3.57,3.57,0,0,1,1.46,1.88,5.22,5.22,0,0,1,4.49-2.55,4.41,4.41,0,0,1,3.33,1.2,5.11,5.11,0,0,1,1.17,3.69v10h-2.45v-9.17a6.79,6.79,0,0,0-.24-2.13,2.11,2.11,0,0,0-.87-1,2.77,2.77,0,0,0-1.48-.39,3.43,3.43,0,0,0-2.55,1,4.48,4.48,0,0,0-1,3.27v8.45H605v-9.45a4.18,4.18,0,0,0-.6-2.47,2.27,2.27,0,0,0-2-.82,3.63,3.63,0,0,0-1.93.54,3.18,3.18,0,0,0-1.28,1.61,9.13,9.13,0,0,0-.4,3v7.55Z"/></g></g></svg>