<?xml version="1.0" encoding="UTF-8"?>
<svg width="22px" height="24px" viewBox="0 0 22 24" version="1.1" xmlns="http://www.w3.org/2000/svg" xmlns:xlink="http://www.w3.org/1999/xlink">
    <!-- Generator: Sketch 49.2 (51160) - http://www.bohemiancoding.com/sketch -->
    <title>个人中心</title>
    <desc>Created with Sketch.</desc>
    <defs></defs>
    <g id="Page-1" stroke="none" stroke-width="1" fill="none" fill-rule="evenodd">
        <g id="1.1.0市场概览" transform="translate(-80.000000, -602.000000)" fill="#BBBBBB">
            <g id="左边功能栏" transform="translate(20.000000, 95.000000)">
                <g id="图标" transform="translate(57.000000, 58.835386)">
                    <g id="Group-12" transform="translate(3.000000, 448.000000)">
                        <g id="个人中心">
                            <g transform="translate(0.000000, 0.488242)" id="Shape">
                                <path d="M21.8262367,21.7313946 C21.3007747,22.8371186 19.8980582,22.9227324 19.4802119,22.9227324 L2.27429859,22.9227324 C1.97891173,22.9060449 0.781778559,22.7790753 0.238504238,21.7792802 C0.0091712257,21.3577411 -0.171178037,20.65179 0.271160072,19.6860954 C1.07716542,17.9310125 2.94448535,17.7605104 3.39053435,17.745274 C6.56928287,17.2642406 7.60165251,16.1947936 7.61130083,16.184636 L7.68551863,16.1091798 C8.02469399,15.7964718 8.14047377,15.2472375 8.17090306,14.7698317 C6.11506991,13.2411175 4.814774,10.2888924 4.814774,7.0442745 C4.814774,1.84432442 8.11449753,0 10.9407115,0 C13.7676676,0 17.0681333,1.84504996 17.0681333,7.0442745 C17.0681333,10.2888924 15.7693218,13.2403919 13.7134886,14.7691062 C13.7454023,15.247963 13.8611821,15.7986484 14.1973887,16.1091798 L14.290161,16.2064023 C14.2923875,16.2064023 15.3299524,17.2678683 18.4931152,17.7459996 C19.2211918,17.7742957 20.5882838,18.1617344 21.4759287,19.4677076 C22.169123,20.4878178 22.0488901,21.2626953 21.8254945,21.7313946 L21.8262367,21.7313946 Z" fill-rule="nonzero"></path>
                            </g>
                        </g>
                    </g>
                </g>
            </g>
        </g>
    </g>
</svg>