<?xml version="1.0" encoding="UTF-8"?>
<svg width="37px" height="37px" viewBox="0 0 37 37" version="1.1" xmlns="http://www.w3.org/2000/svg" xmlns:xlink="http://www.w3.org/1999/xlink">
    <title>发布需求</title>
    <g stroke="none" stroke-width="1" fill-rule="evenodd" transform="translate(5, 5)" fill="#BBBBBB">
        <path d="M20.8636364,0 L6.13636364,0 C2.74734358,-2.07517628e-16 4.15035257e-16,2.74734358 0,6.13636364 L0,20.8636364 C1.9200625e-15,24.2526564 2.74734358,27 6.13636364,27 L20.8636364,27 C24.2526564,27 27,24.2526564 27,20.8636364 L27,6.13636364 C27,2.74734358 24.2526564,3.21757211e-15 20.8636364,0 Z M22.5695455,11.4259091 C21.4297324,11.7919189 20.6566947,12.8520675 20.6566947,14.0492045 C20.6566947,15.2463415 21.4297324,16.3064902 22.5695455,16.6725 L22.5695455,17.1818182 C22.5695455,17.8328041 22.3109423,18.4571274 21.8506257,18.9174439 C21.3903092,19.3777605 20.7659859,19.6363636 20.115,19.6363636 L6.885,19.6363636 C6.23401407,19.6363636 5.60969083,19.3777605 5.14937427,18.9174439 C4.6890577,18.4571274 4.43045455,17.8328041 4.43045455,17.1818182 L4.43045455,16.6725 C5.57026762,16.3064902 6.34330527,15.2463415 6.34330527,14.0492045 C6.34330527,12.8520675 5.57026762,11.7919189 4.43045455,11.4259091 L4.43045455,10.9165909 C4.43045455,9.56098288 5.52939198,8.46204545 6.885,8.46204545 L11.9290909,8.46204545 L11.9290909,8.02022726 C11.8925659,7.43668268 12.1831501,6.88113648 12.6833026,6.5783067 C13.183455,6.27547691 13.8104086,6.27547691 14.3105611,6.5783067 C14.8107135,6.88113648 15.1012978,7.43668268 15.0647727,8.02022726 L15.0647727,8.46204545 L20.1088636,8.46204545 C21.4644717,8.46204545 22.5634091,9.56098288 22.5634091,10.9165909 L22.5695455,11.4259091 Z" fill-rule="nonzero"></path>
        <path d="M15.4730798,13.8123994 L14.3931991,14.9132304 L14.3931991,8.0134864 C14.4201823,7.66139062 14.2560856,7.32325342 13.9685895,7.13853718 C13.6810934,6.95382094 13.3189066,6.95382094 13.0314105,7.13853718 C12.7439144,7.32325342 12.5798176,7.66139062 12.6068008,8.0134864 L12.6068008,14.9132304 L11.5269202,13.8123994 C11.1748768,13.4548364 10.6152735,13.4548364 10.2632301,13.8123994 C10.0950647,13.9814231 10,14.2149633 10,14.4590624 C10,14.7031615 10.0950647,14.9367017 10.2632301,15.1057254 L12.7906103,17.686362 L12.8365627,17.686362 C13.0044858,17.8857662 13.2461241,18 13.5,18 C13.7538758,18 13.9955142,17.8857662 14.1634373,17.686362 L14.2093897,17.686362 L16.7367699,15.1057254 C16.9049353,14.9367017 17,14.7031615 17,14.4590624 C17,14.2149633 16.9049353,13.9814231 16.7367699,13.8123994 C16.3847265,13.4548364 15.8251232,13.4548364 15.4730798,13.8123994 Z" fill-rule="nonzero"></path>
    </g>
</svg>