<?xml version="1.0" encoding="UTF-8"?>
<svg width="80px" height="54px" viewBox="0 0 80 54" version="1.1" xmlns="http://www.w3.org/2000/svg" xmlns:xlink="http://www.w3.org/1999/xlink">
    <title>未知文件</title>
    <g stroke="none" stroke-width="1" fill="#B2B2B2" fill-rule="nonzero">
        <path d="M39.7303759,22.4811341 C39.7303759,18.6660554 42.8356725,15.5607589 46.6507511,15.5607589 C50.4658297,15.5607589 53.5711263,18.6660554 53.5711263,22.4811341 C53.5711263,25.1356231 52.0244728,27.5838917 49.6289583,28.7276959 C49.6169688,28.7348896 49.6049792,28.7396855 49.5929896,28.7444813 C48.7705057,29.1305452 48.240567,29.9674166 48.240567,30.8738275 C48.240567,31.7514634 47.5283871,32.4636434 46.6507511,32.4636434 C45.7731152,32.4636434 45.0609352,31.7538613 45.0609352,30.8762254 C45.0609352,28.7588687 46.2910642,26.8045701 48.1998025,25.8885676 C48.2117921,25.8813739 48.2261796,25.876578 48.2381691,25.8693843 C49.5450314,25.2555187 50.3914945,23.9246773 50.3914945,22.4811341 C50.3914945,20.4189294 48.7129558,18.7403907 46.6507511,18.7403907 C44.5885464,18.7403907 42.9100078,20.4189294 42.9100078,22.4811341 C42.9100078,23.35877 42.1978278,24.07095 41.3201918,24.07095 C40.4425559,24.07095 39.7303759,23.35877 39.7303759,22.4811341 Z M30.3401509,29.3775302 L35.0448551,29.3775302 C35.1767402,29.3775302 35.2846463,29.2696241 35.2846463,29.1377389 L35.2846463,27.2266027 C35.2870442,27.2146132 35.2870442,27.2050215 35.2870442,27.1930319 C35.2870442,27.0611468 35.1791382,26.9532407 35.0496509,26.9532407 L30.3401509,26.9532407 C30.2082657,26.9532407 30.1003597,27.0611468 30.1003597,27.1930319 L30.1003597,29.1377389 C30.1003597,29.2696241 30.2082657,29.3775302 30.3401509,29.3775302 Z M46.6483532,34.199732 C45.4589886,34.199732 44.4950279,35.1636928 44.4950279,36.3530573 C44.4950279,37.5424219 45.4589886,38.5063827 46.6483532,38.5063827 C47.8377178,38.5063827 48.8016785,37.5424219 48.8016785,36.3530573 C48.8016785,35.1636928 47.8377178,34.199732 46.6483532,34.199732 Z M30.3401509,33.6937725 L38.8551379,33.6937725 C38.9870231,33.6937725 39.0949291,33.5858664 39.0949291,33.4539812 L39.0949291,31.5428451 C39.097327,31.5308555 39.097327,31.5212638 39.097327,31.5092743 C39.097327,31.3773891 38.989421,31.269483 38.8599337,31.269483 L30.3401509,31.269483 C30.2082657,31.269483 30.1003597,31.3773891 30.1003597,31.5092743 L30.1003597,33.4539812 C30.1003597,33.5858664 30.2082657,33.6937725 30.3401509,33.6937725 Z M30.3401509,38.0100148 L40.9988716,38.0100148 C41.1307568,38.0100148 41.2386628,37.9021088 41.2386628,37.7702236 L41.2386628,35.8590874 C41.2410607,35.8470978 41.2410607,35.8375062 41.2410607,35.8255166 C41.2410607,35.6936314 41.1331547,35.5857254 41.0036674,35.5857254 L30.3401509,35.5857254 C30.2082657,35.5857254 30.1003597,35.6936314 30.1003597,35.8255166 L30.1003597,37.7702236 C30.1003597,37.9021088 30.2082657,38.0100148 30.3401509,38.0100148 Z M59,12.7791805 L59,41.2208195 C59,42.7554835 57.7554835,44 56.2208195,44 L27.7791805,44 C26.2445165,44 25,42.7554835 25,41.2208195 L25,12.7791805 C25,11.2445165 26.2445165,10 27.7791805,10 L56.2208195,10 C57.7530855,10.0023979 58.9976021,11.2469145 59,12.7791805 Z M56.1488821,12.8535158 L27.8559137,12.8535158 L27.8559137,41.1392905 L56.1440863,41.1392905 L56.1488821,12.8535158 Z"></path>
    </g>
</svg>