<?xml version="1.0" encoding="UTF-8"?>
<svg width="34px" height="34px" viewBox="0 0 34 34" version="1.1" xmlns="http://www.w3.org/2000/svg" xmlns:xlink="http://www.w3.org/1999/xlink">
    <title>钱包</title>
    <g id="Symbols" stroke="none" stroke-width="1" fill-rule="evenodd" transform="translate(5, 5)" fill="#BBBBBB">
        <path d="M24,3.83999997 C24,1.77230765 22.2331288,-3.24519225e-08 20.1717791,0 L3.82822086,0 C1.76687116,0 0,1.77230768 0,3.83999997 L0,20.16 C0,22.2276923 1.76687116,24 3.82822086,24 L20.0981595,24 C22.1595092,24 23.9263804,22.2276923 23.9263804,20.16 L23.9263804,16.0984615 L15.3128835,16.0984615 C15.3128835,16.0246154 12,16.32 12,12.1846154 C12,7.75384615 15.607362,8.04923076 15.607362,8.04923076 L24,8.04923076 L24,3.83999997 Z" id="Shape" fill-rule="nonzero"></path>
        <path d="M13,12.195063 C13,15.3102495 15.5362319,14.9907431 15.5362319,14.9907431 L23,14.9907431 L23,9 L15.7536232,9 C15.7536232,9.07987659 13,8.84024685 13,12.195063 Z M15.826087,10.8371612 C16.3333333,10.8371612 16.7681159,11.3164207 16.7681159,11.8755567 C16.7681159,12.2749396 16.5507246,12.5944459 16.2608696,12.8340756 C15.9710145,12.9938288 15.6086956,12.9938288 15.3188406,12.8340756 C15.0289855,12.6743225 14.8115942,12.2749396 14.8115942,11.8755567 C14.884058,11.3164207 15.3188406,10.8371612 15.826087,10.8371612 Z" id="Shape" fill-rule="nonzero"></path>
    </g>
</svg>