<?xml version="1.0" standalone="no"?>
<!DOCTYPE svg PUBLIC "-//W3C//DTD SVG 1.1//EN" "http://www.w3.org/Graphics/SVG/1.1/DTD/svg11.dtd" >
<!--
2013-9-30: Created.
-->
<svg>
<metadata>
Created by iconfont
</metadata>
<defs>

<font id="anticon" horiz-adv-x="1024" >
  <font-face
    font-family="anticon"
    font-weight="500"
    font-stretch="normal"
    units-per-em="1024"
    ascent="896"
    descent="-128"
  />
    <missing-glyph />
    
    <glyph glyph-name="x" unicode="x" horiz-adv-x="1001"
d="M281 543q-27 -1 -53 -1h-83q-18 0 -36.5 -6t-32.5 -18.5t-23 -32t-9 -45.5v-76h912v41q0 16 -0.5 30t-0.5 18q0 13 -5 29t-17 29.5t-31.5 22.5t-49.5 9h-133v-97h-438v97zM955 310v-52q0 -23 0.5 -52t0.5 -58t-10.5 -47.5t-26 -30t-33 -16t-31.5 -4.5q-14 -1 -29.5 -0.5
t-29.5 0.5h-32l-45 128h-439l-44 -128h-29h-34q-20 0 -45 1q-25 0 -41 9.5t-25.5 23t-13.5 29.5t-4 30v167h911zM163 247q-12 0 -21 -8.5t-9 -21.5t9 -21.5t21 -8.5q13 0 22 8.5t9 21.5t-9 21.5t-22 8.5zM316 123q-8 -26 -14 -48q-5 -19 -10.5 -37t-7.5 -25t-3 -15t1 -14.5
t9.5 -10.5t21.5 -4h37h67h81h80h64h36q23 0 34 12t2 38q-5 13 -9.5 30.5t-9.5 34.5q-5 19 -11 39h-368zM336 498v228q0 11 2.5 23t10 21.5t20.5 15.5t34 6h188q31 0 51.5 -14.5t20.5 -52.5v-227h-327z" />
    

    
    <glyph glyph-name="voice" unicode="&#58886;" d="M634.647273 103.641212c0 125.269333 102.555152 229.158788 226.210909 229.158788 48.252121 0 96.519758-15.282424 135.726545-45.831758v137.495273H453.66303v-354.443636c-21.100606-125.284848-141.761939-213.891879-262.407757-192.512C67.599515-101.09672699999999-16.86497 15.01866700000005 4.251152 140.30351499999995c21.116121 125.269333 135.726545 210.835394 259.397818 189.44 36.196848-6.11297 72.393697-21.395394 99.529697-42.775273V607.806061C363.178667 827.810909 414.456242 882.812121 544.162909 882.812121h431.321212c36.181333 0 111.600485-18.338909 111.600485-91.67903V73.07636400000001c-18.106182-110.002424-114.625939-195.568485-226.210909-195.568485-123.671273 0-226.226424 100.848485-226.226424 226.117818z m-404.169697 91.663515c-48.267636 0-90.499879-39.718788-90.499879-91.67903 0-51.944727 39.222303-91.663515 90.499879-91.663515 51.262061 0 90.484364 39.718788 90.484363 91.663515 0 51.944727-42.232242 91.67903-90.484363 91.67903zM996.584727 791.117576h-452.421818c-108.590545 0-90.499879-183.32703-90.499879-183.327031h542.921697V791.117576z m-135.726545-595.828364c-48.252121 0-90.484364-39.718788-90.484364-91.67903 0-51.944727 39.206788-91.663515 90.484364-91.663515 51.277576 0 90.484364 39.718788 90.484363 91.663515 0 51.944727-39.206788 91.67903-90.484363 91.67903z"  horiz-adv-x="1101" />

    
    <glyph glyph-name="text" unicode="&#58887;" d="M164.423127 435.384166h267.990155l61.414411-164.903896h100.496308L354.249487 896h-111.662565l-240.074514-631.203665h100.496308l61.414411 170.595585z m111.662565 318.455431c5.583128 17.059559 11.166256 34.119117 16.749384 56.86261h5.583129c0-5.683935 5.583128-17.059559 16.749384-45.486986 0-5.691689 5.583128-11.375624 5.583129-11.375624 0-5.691689 33.498769-85.297793 89.330051-244.525508h-223.325129c61.414411 159.227716 89.330052 238.833819 89.330052 244.525508z m329.404566-96.673416h513.647798v-79.613858h-513.647798V657.166181zM2.512408 185.18247699999995h1116.625648v-79.613858h-1116.625648V185.18247699999995z m602.97785 233.149885h513.647798V338.734012h-513.647798V418.332362zM2.512408-47.96740799999998h1116.625648v-79.606103h-1116.625648V-47.975161999999955z m602.97785 938.275719h513.647798v-79.613858h-513.647798V890.308311z"  horiz-adv-x="1124" />

    
    <glyph glyph-name="video" unicode="&#58888;" d="M643.498667 297.4208c8.072533-4.6592 13.533867-13.533867 13.533866-23.552 0-10.9056-6.365867-20.224-15.4624-24.439467l-195.293866-113.732266a26.948267 26.948267 0 0 0-40.618667 23.313066c0 1.024 0 1.928533 0.136533 2.850134l-0.4608 227.242666 0.341334 0.221867V390.826667c0 14.8992 11.946667 27.067733 26.845866 27.067733 7.953067 0 15.240533-3.5328 20.138667-9.216l190.839467-111.240533z m-60.740267-385.792c0 20.1728 16.401067 36.522667 36.625067 36.522667s36.625067-16.349867 36.625066-36.522667c0-20.155733-16.384-36.522667-36.625066-36.522667a36.573867 36.573867 0 0 0-36.625067 36.522667zM875.400533 893.866667H147.831467C67.754667 893.866667 2.2528 828.3477330000001 2.2528 748.288v-727.586133c0-80.059733 65.501867-145.578667 145.578667-145.578667h324.949333c20.241067 0 36.522667 16.384 36.522667 36.522667 0 20.1216-16.384 36.488533-36.642134 36.488533h-0.682666l-324.266667-0.221867c-40.0384 0-72.789333 33.672533-72.789333 73.710934V603.0336c0.682667 0 1.4848-0.1024 2.167466-0.1024h871.560534v-581.307733c0-40.0384-32.768-73.710933-72.789334-73.710934h-105.096533a36.573867 36.573867 0 0 1-40.721067-36.283733c0-20.138667 16.384-36.522667 36.625067-36.522667H875.52c80.0768 0 145.578667 65.536 145.578667 145.595734V748.288c-0.1024 80.059733-65.621333 145.578667-145.698134 145.578667zM675.345067 675.4986670000001l-84.1728 145.92h103.389866l84.1728-145.92H675.328z m-190.5152 0l-84.155734 145.92h103.253334l84.1728-145.92h-103.253334z m-196.539734 0l-84.2752 145.92h109.312l84.155734-145.92h-109.192534z m-213.367466-0.119467V748.629333a72.874667 72.874667 0 0 0 45.056 67.208534l80.964266-140.3392H77.090133c-0.682667 0-1.4848 0-2.167466-0.119467z m873.6256 0.119467h-82.466134l-84.1728 145.92h93.952a73.0112 73.0112 0 0 0 72.789334-72.789334v-73.130666h-0.1024z"  horiz-adv-x="1024" />

    
    <glyph glyph-name="picture" unicode="&#58889;" d="M1091.416436 888.887855H92.234473C36.864 888.887855 11.543273 837.110691 11.543273 782.1312V-18.525090999999975c0-54.644364 25.376582-92.271709 80.709818-92.271709h999.181964c55.389091 0 119.714909 37.2736 119.714909 92.271709V782.1312c0 54.625745-64.381673 106.756655-119.714909 106.756655z m19.586328-434.343564l-73.541819 40.96c-69.371345 38.576873-163.393164 22.1184-214.965527-37.552873l-184.003491-212.936145c-21.131636-24.389818-65.368436-33.1776-94.4128-18.729891l-113.8688 56.7296c-70.935273 35.337309-163.933091 13.330618-211.316363-50.082909l-107.426909-143.7696 0.186181 699.336145 999.442619 0.446837-0.093091-334.382546z m0.502691-465.361455H161.475491l137.997964 192.828509c18.432 26.288873 58.926545 32.637673 86.667636 17.910691l113.8688-60.509091c69.874036-37.124655 163.597964-17.240436 214.6304 45.744873l183.984873 227.160437c20.554473 25.320727 62.687418 35.151127 90.7264 18.450618l122.2656-68.794182-0.111709-372.791855zM341.922909 381.803055a149.950836 149.950836 0 0 1 149.950836 149.950836 149.950836 149.950836 0 0 1-149.950836 149.950836 149.950836 149.950836 0 0 1-149.950836-149.950836 149.950836 149.950836 0 0 1 149.950836-149.950836z m0 199.940654a50.008436 50.008436 0 0 0 0-99.979636 50.008436 50.008436 0 0 0 0 99.979636z"  horiz-adv-x="1228" />

    
    <glyph glyph-name="dashboard" unicode="&#58890;" d="M793.324308-96.85989767000001H230.675692C114.136615-96.85989767000001 19.692308-2.730666670000005 19.692308 113.41456432999996V674.13333333C19.692308 790.31794833 114.136615 884.44717933 230.675692 884.44717933h562.648616C909.863385 884.44717933 1004.307692 790.31794833 1004.307692 674.13333333v-560.718769c0-116.145231-94.444308-210.313846-210.983384-210.313846z m127.724307 489.235693L721.526154 593.9068713300001a41.156923 41.156923 0 0 1-35.958154 10.082462 38.203077 38.203077 0 0 1-33.949538-9.964308l-317.558154-335.950769L157.538462 453.69764133a40.684308 40.684308 0 0 1-57.028924 0 39.896615 39.896615 0 0 1 0-56.556308l191.369847-201.570462c11.224615-11.657846 33.831385-13.548308 50.018461-6.537846 12.603077-4.056615 26.348308-3.544615 36.391385 6.813539l306.924307 321.929846 179.357539-181.484308a39.975385 39.975385 0 0 1 55.532308 0.748308 39.660308 39.660308 0 0 1 0.94523 55.335385z"  horiz-adv-x="1024" />

    
    <glyph glyph-name="demand" unicode="&#58891;" d="M435.133935 702.926452h146.828388a46.311226 46.311226 0 0 1 41.455483 24.972387l65.436904 127.108129H328.010323l65.668129-127.108129c7.828645-15.36 23.915355-25.038452 41.488516-24.972387z m376.270452 152.080516h-65.932387l-76.866065-149.305807a96.784516 96.784516 0 0 0-86.643612-52.124903H435.133935A96.784516 96.784516 0 0 0 348.490323 705.701161l-77.130323 149.305807h-58.797419C159.083355 854.940903 115.712 812.626581 115.612903 760.369548v-732.523354c0.066065-52.224 43.437419-94.571355 96.98271-94.63742h598.808774c53.512258 0.066065 96.916645 42.413419 96.98271 94.63742V760.369548c-0.066065 52.257032-43.437419 94.571355-96.98271 94.63742z m-245.958193-589.097291h-265.579355a24.972387 24.972387 0 0 0-25.104516 24.675097c0 13.576258 11.230968 24.609032 25.104516 24.675097h265.579355a24.972387 24.972387 0 0 0 25.104516-24.675097c0-13.543226-11.230968-24.609032-25.104516-24.675097z m151.717161 154.260646H299.866839a24.972387 24.972387 0 0 0-25.104516 24.675096c0 13.576258 11.230968 24.609032 25.104516 24.675097h417.296516a24.972387 24.972387 0 0 0 25.137548-24.675097c0-13.543226-11.230968-24.609032-25.104516-24.675096z"  horiz-adv-x="1024" />

    
    <glyph glyph-name="assets" unicode="&#58892;" d="M780.932741 489.434074a159.744 159.744 0 0 0-134.561185-74.107259 159.744 159.744 0 0 0-134.599112 73.576296 159.744 159.744 0 0 0-134.409481-73.91763 159.744 159.744 0 0 0-134.750815 73.803852A160.274963 160.274963 0 0 0 141.236148 418.133333l0.568889-476.956444c0.037926-26.661926 21.883259-48.469333 48.507259-48.431408L834.37037-106.45807400000001c26.624 0.037926 48.393481 21.921185 48.355556 48.583111l-0.606815 477.032296a160.237037 160.237037 0 0 0-101.224296 70.276741z m-82.981926-490.989037c-23.969185 0-43.614815 21.124741-43.652741 47.028148l-0.075852 66.522074-0.075852 57.837037-89.73274-87.04c-1.630815-1.592889-3.337481-3.034074-5.082074-4.361481a42.097778 42.097778 0 0 0-29.582223-10.467556 42.097778 42.097778 0 0 0-29.582222 10.391704 53.589333 53.589333 0 0 0-5.082074 4.361481l-89.960296 86.812445 0.075852-57.837037 0.113777-66.522074c0-25.865481-19.569778-47.066074-43.576889-47.104-23.969185 0-43.614815 21.124741-43.65274 47.028148l-0.075852 66.484148-0.113778 88.367407-0.113778 66.484149c0 1.289481 0.075852 2.541037 0.151704 3.792592a39.405037 39.405037 0 0 0 11.567407 31.93363c8.192 7.964444 19.26637 11.681185 30.682075 11.377778h1.137777c7.698963 0 14.942815-2.161778 21.238519-5.954371a53.096296 53.096296 0 0 0 12.136296-8.798815l64.815408-62.539851 70.162962-67.697778 53.778963 52.186074 80.782223 78.392889c3.678815 3.565037 7.774815 6.523259 12.136296 8.798815 6.257778 3.792593 13.50163 6.030222 21.200593 6.030222h1.137777c11.415704 0.303407 22.528-3.413333 30.72-11.339852 8.760889-8.419556 12.591407-20.100741 11.64326-31.857778 0.113778-1.289481 0.151704-2.541037 0.151703-3.792592l0.113778-66.522074 0.113778-88.367408 0.075852-66.484148c0-25.903407-19.569778-47.104-43.576889-47.141926zM1024 560.1279999999999L1024 560.772741h-0.379259l-38.229334 69.973333-110.364444 202.069333C862.245926 856.367407 829.781333 875.52 802.967704 875.52L209.313185 874.799407c-26.81363 0-58.709333-19.607704-70.807704-43.501037L22.034963 601.5810369999999l-21.31437-42.097778H0a105.396148 105.396148 0 0 1 105.623704-105.130666 105.358222 105.358222 0 0 1 105.320296 104.713481h0.303407a27.610074 27.610074 0 0 0 29.88563 27.534222 27.610074 27.610074 0 0 0 29.961482-26.737777h-0.37926a105.396148 105.396148 0 0 1 105.585778-105.168593 105.396148 105.396148 0 0 1 105.358222 104.675555h0.872297a27.610074 27.610074 0 0 0 29.771851 27.572149 27.610074 27.610074 0 0 0 29.847704-27.458371h0.872296a105.396148 105.396148 0 0 1 105.623704-104.485926 105.396148 105.396148 0 0 1 105.358222 105.434074h-0.379259a27.610074 27.610074 0 0 0 29.847704 26.81363 27.610074 27.610074 0 0 0 29.923555-26.43437h-0.379259a105.396148 105.396148 0 0 1 105.472-105.282371c58.026667 0 105.054815 46.724741 105.472 104.523852H1024v0.037926z"  horiz-adv-x="1024" />

    
    <glyph glyph-name="history" unicode="&#58893;" d="M510.664416-121.872027c-282.043885 0-510.664416 227.834893-510.664416 508.936013C0 668.125825 228.620531 896 510.664416 896s510.664416-227.834893 510.664416-508.936014c0-281.061838-228.620531-508.936014-510.664416-508.936013z m42.542274 483.952739V599.264692c0 23.058462-19.051711 42.267301-42.542274 42.267301-23.647691 0-42.542274-18.894583-42.542274-42.267301v-254.74298c-0.078564-11.116772 4.321007-21.801442 12.177382-29.697099l120.909621-120.516803a42.345865 42.345865 0 0 1 59.904865 0.274973c16.498389 16.459107 16.616234 43.09222 0.274973 59.708455l-108.182293 107.789474z"  horiz-adv-x="1024" />

    
    <glyph glyph-name="blocks" unicode="&#58894;" d="M1005.037037 380.624593C1005.037037 652.553481 784.801185 871.992889 512 871.992889S18.962963 652.5155560000001 18.962963 380.624593c0-248.945778 187.354074-458.638222 430.573037-488.106667 13.160296-3.26163 29.582222-3.26163 49.303704-3.26163h16.459852C788.100741-107.51999999999998 1005.037037 111.99525900000003 1005.037037 380.58666700000003z m-69.025185-6.561186c0 22.945185-3.299556 49.152-9.860741 72.05926v22.945185c6.561185-29.468444 9.860741-58.974815 9.860741-88.443259v-6.561186z m-848.023704 6.561186c0 29.468444 3.299556 58.974815 9.860741 88.443259 19.721481-19.64563 62.464-19.64563 72.324741 9.860741 19.721481-9.860741 42.704593-13.12237 42.704592-36.067556 0-72.059259 3.299556-153.979259 69.025185-153.979259 3.299556 0 36.181333-13.084444 55.902815-55.675259 6.561185-16.384 29.582222 0 55.864889 0 13.160296 0 0-19.64563 0-68.79763 0-45.89037 98.607407-114.650074 98.607408-114.650074 0-29.468444 0-55.675259 3.299555-75.320889-23.021037 0-42.742519-3.299556-55.902815-6.561185C239.198815 0.5688890000000129 87.988148 174.23170400000004 87.988148 380.58666700000003z m529.180445-406.186667c-3.26163 9.822815-13.12237 16.346074-29.582223 13.084444 13.160296 58.974815 19.721481 91.704889 49.303704 117.94963 42.742519 36.02963 6.599111 75.320889-26.282667 72.059259-26.282667-3.299556-9.860741 32.768-32.881777 32.768-22.983111 3.26163-52.565333 45.852444-85.447111 62.198519-16.421926 6.561185-32.881778 29.50637-59.164445 29.50637-23.021037 0-59.164444-19.64563-59.164444-3.261629 0 52.41363-6.561185 88.443259-6.561186 101.527703 0 13.12237-6.599111 3.26163 22.983112 3.26163 16.459852 0 9.860741 36.02963 26.320592 36.029629 16.421926 0 55.864889-16.346074 65.72563-9.784888 9.860741 6.523259 69.025185-157.240889 69.025185-26.244741 0 16.384-6.561185 42.628741 0 55.713185 32.881778 58.974815 62.464 104.827259 59.164444 111.388444 0 3.26163-32.881778 6.561185-55.864888 0-9.860741-3.299556 3.26163-16.384-9.860741-19.683555-46.042074-9.822815-85.485037 13.12237-72.324741 32.768 13.160296 22.945185 65.72563 9.860741 69.025185 52.41363 3.299556 26.206815 3.299556 52.41363 6.561185 75.358814 59.164444-9.860741 52.603259 78.620444-36.143407 88.44326 184.054519-3.26163 338.564741-121.211259 394.42963-281.713778-3.299556 3.26163-6.561185 3.26163-9.860741 3.261629-26.282667 68.79763-92.046222 19.64563-72.324741-42.590814-121.590519-91.704889-88.746667-157.240889-49.303704-193.270519 19.721481-19.64563 39.442963-49.152 52.60326-68.797629-13.160296-39.291259 52.603259-22.907259 85.447111 45.89037-36.143407-140.894815-151.172741-252.283259-295.822222-288.274963z"  horiz-adv-x="1024" />

    
    <glyph glyph-name="gerenzhongxin" unicode="&#58895;" d="M973.909333-45.013333c-22.4-47.189333-82.261333-50.816-100.096-50.816H139.690667C127.146667-95.146667 76.032-89.728 52.906667-47.061333c-9.813333 18.005333-17.493333 48.128 1.365333 89.301333 34.389333 74.88 114.048 82.176 133.12 82.816 135.594667 20.522667 179.626667 66.133333 180.053333 66.56l3.2 3.242667c14.464 13.354667 19.370667 36.778667 20.693334 57.173333-87.722667 65.194667-143.189333 191.146667-143.189334 329.6 0 221.866667 140.8 300.544 261.376 300.544 120.618667 0 261.418667-78.72 261.418667-300.544 0-138.453333-55.424-264.362667-143.146667-329.6 1.365333-20.437333 6.314667-43.946667 20.650667-57.173333l3.968-4.138667c0.085333 0 44.373333-45.269333 179.328-65.706667 31.061333-1.194667 89.386667-17.706667 127.274667-73.429333 29.568-43.52 24.448-76.586667 14.933333-96.597333z"  horiz-adv-x="1024" />

    
    <glyph glyph-name="mywallet" unicode="&#58896;" d="M980.01342883 702.24913269c0 80.65431433-68.91497731 149.76429785-149.29628393 149.76429614H193.2828551C112.90154849 852.01342883 43.98657117 782.90344699 43.98657117 702.24913269v-636.49826538c0-80.65431433 68.91497731-149.76429785 149.29628393-149.76429614h634.54820667c80.4203082 0 149.29628396 69.10998352 149.29628395 149.76429614v158.42254721h-335.91663888c0 2.84708154-129.21070684-8.65824769-129.21070684 152.61137769 0 172.81395952 140.67703616 161.30862863 140.67703616 161.30862862H980.01342883V702.24913269zM551.00111866 376.39478147c0-121.48848526 98.90683745-109.04712827 98.90683912-109.04712825H941.01231019V501.00335763h-282.60210937c0-3.12008923-107.40908217 6.24017845-107.40908216-124.60857616z m110.2171638 52.96352036c19.77356783 0 36.73905406-18.72053702 36.73905406-40.52216336 0-15.56144622-8.46324315-28.00280321-19.77356785-37.36307259a38.45510327 38.45510327 0 0 0-36.73905402 0c-11.31032469 6.24017845-19.77356783 21.84062624-19.77356788 37.36307259 2.80807997 21.84062624 19.77356783 40.52216337 39.54713569 40.52216336z"  horiz-adv-x="1024" />

    
    <glyph glyph-name="mycheck" unicode="&#58897;" d="M925.78491969 842.9434014H130.69540812C76.02127994 842.9434014 31.72326527 799.48345724 31.72326527 748.91986695v-612.2704068c0-50.6034985 44.29801467-94.06344266 99.45103955-94.06344266h273.88944083s7.30318548-7.14355437 17.20040058-20.43295809c3.11283287-3.07292467 7.30318548-7.18346255 10.41602006-13.28940538 0 0 7.30318548-10.21647906 10.37611016-13.28940375 30.72925354-47.49066563 54.7140347-70.51765167 92.7065672-70.51765167 38.03244069 0 65.09014654 23.54579265 95.81940176 70.51765167 23.94487297 37.31409476 30.72925354 47.5305738 30.72925355 47.53057215h267.66377333c54.67412651 0 99.45103957 43.45994414 99.45103955 94.06344432V748.91986695C1024.75706253 802.5563819399999 980.4590462 842.9434014 925.78491969 842.9434014zM270.77291466 368.67528143000004c-30.21044862 0-54.67412651 24.02468937-54.67412651 53.63651499 0 29.65173382 24.4636779 53.67642318 54.67412651 53.67642485 30.21044862 0 54.67412651-24.02468937 54.67412818-53.67642485 0-29.61182562-23.94487297-53.636515-54.67412818-53.63651499z m257.24775331 0c-30.21044862 0-54.67412651 24.02468937-54.67412652 53.63651499 0 29.65173382 24.4636779 53.67642318 54.67412652 53.67642485 30.21044862 0 54.67412651-24.02468937 54.67412818-53.67642485 0-29.61182562-24.4636779-53.636515-54.67412818-53.63651499z m254.09501223 0c-30.21044862 0-54.67412651 24.02468937-54.67412651 53.63651499 0 29.65173382 24.4636779 53.67642318 54.67412651 53.67642485 30.21044862 0 54.67412651-24.02468937 54.67412817-53.67642485 0-29.61182562-24.4636779-53.636515-54.67412817-53.63651499z"  horiz-adv-x="1071" />

    
    <glyph glyph-name="fabuxuqiu" unicode="&#58898;" d="M780.87205468 876.90776135H243.12794532A224.03570499 224.03570499 0 0 1 19.09223865 652.87205468v-537.74410936A224.03570499 224.03570499 0 0 1 243.12794532-108.90776134999999h537.74410936A224.03570499 224.03570499 0 0 1 1004.90776135 115.12794531999998V652.87205468A224.03570499 224.03570499 0 0 1 780.87205468 876.90776135z m62.28893747-417.18252532a100.58969521 100.58969521 0 0 1 0-191.57681626v-18.58444795a89.63618976 89.63618976 0 0 0-89.63618976-89.59967681h-483.04960478a89.63618976 89.63618976 0 0 0-89.63618976 89.59967681v18.62096092a100.58969521 100.58969521 0 0 1 0 191.54030329v18.62096091a89.63618976 89.63618976 0 0 0 89.63618976 89.5996768h184.16494319v16.13816614a57.32334622 57.32334622 0 1 0 114.50064729 0v-16.13816614h184.16494486a89.63618976 89.63618976 0 0 0 89.59967681-89.6361881l0.25558239-18.58444961zM584.03755681 372.60835400999997l-39.43262124-40.1993668v251.93063341a34.75912535 34.75912535 0 0 1-15.48095445 31.91121429 31.47307374 31.47307374 0 0 1-34.24796224 0 34.75912535 34.75912535 0 0 1-15.48095445-31.91121429v-251.93063341l-39.43262124 40.16285551a32.05725948 32.05725948 0 0 1-46.15077136 0 33.48121668 33.48121668 0 0 1-9.60257247-23.58654883c0-8.9088512 3.46860978-17.45258611 9.60257247-23.62306176l92.3015427-94.20015014h1.67953795c6.0974514-7.30233751 14.96979133-11.46466857 24.20724752-11.46466855a31.69214318 31.69214318 0 0 1 24.20724752 11.46466855h1.67953795l92.3015427 94.20015014a33.48121668 33.48121668 0 0 1 9.60257247 23.62306176 33.48121668 33.48121668 0 0 1-9.60257247 23.62306012 32.05725948 32.05725948 0 0 1-46.15077136 0z"  horiz-adv-x="1024" />

    
    <glyph glyph-name="shezhi" unicode="&#58899;" d="M1053.324155 486.199588c-2.558454 20.041225-15.222803 37.609278-38.035687 42.640904h-2.558454c-45.668409 9.977972-78.672469 35.050823-104.043807 77.649087-22.855525 37.566637-30.488247 85.196527-15.265444 127.794791 7.632722 17.525412 2.558454 40.08245-15.222802 55.134689a477.663412 477.663412 0 0 1-172.567741 102.76458c-17.781257 7.462158-38.078328 2.473172-55.859585-15.052239-27.929792-35.093464-71.082388-52.618876-119.30925-52.618876-43.109954 0-83.746736 20.041225-119.26661 55.092048-20.297071 20.041225-40.636782 17.568053-55.859585 12.536426-65.965479-27.546024-121.825064-60.123675-170.051927-100.206125-17.738616-12.536426-25.371338-35.093464-17.738616-55.13469 12.664349-47.62989 7.590081-92.743967-15.265444-132.826417-20.297071-35.050823-58.375398-62.639489-104.043807-75.175915-2.558454 0-2.558454 0-5.116908-2.473172-15.180162-7.54744-25.328697-20.041225-32.961419-37.609278v-2.515813A501.883445 501.883445 0 0 1 0.008533 383.477649c0-32.577651 2.558454-70.144288 10.148536-100.206126 2.558454-20.041225 15.222803-37.609278 38.078327-42.640904h2.558455c45.625768-10.020613 78.672469-35.050823 104.043806-77.649087 22.855525-37.609278 30.445606-85.196527 15.222803-127.794791-7.590081-17.568053-2.558454-40.08245 15.222803-55.134689a467.642799 467.642799 0 0 1 175.126195-102.76458c2.558454 0 5.116909-2.473172 10.148535-2.473172h7.632722c12.70699 0 27.929792 4.988986 40.594141 17.525411 27.929792 32.577651 71.082388 52.618876 119.309251 52.618877 43.152595 0 83.746736-20.041225 119.30925-55.13469 10.148535-10.020613 22.812884-17.525412 35.519874-17.525412 5.074268 0 12.70699 0 17.781257 2.515814 65.965479 27.546024 121.825064 60.123675 170.051927 100.206125 17.738616 10.020613 25.371338 35.093464 17.738616 55.13469-12.664349 47.62989-7.590081 92.701326 15.265444 132.826417 20.297071 35.050823 58.375398 62.639489 104.043807 75.175915 2.558454 0 2.558454 0 5.116908 2.473172 15.180162 7.54744 25.328697 20.041225 32.961419 37.609278v2.515813A501.883445 501.883445 0 0 1 1066.031145 383.477649c-2.558454 35.093464-5.074268 70.144288-12.70699 102.76458zM530.461385 210.568781c-98.969539 0-177.642008 77.691728-177.642008 175.424681S431.491845 561.375502 530.461385 561.375502c99.01218 0 177.684649-77.649087 177.684649-175.38204 0-97.732953-78.672469-175.424681-177.684649-175.424681z"  horiz-adv-x="1066" />

    
    <glyph glyph-name="shichangfenxi_" unicode="&#58900;" d="M804.57728-128H219.42272A219.42272 219.42272 0 0 0 0 91.42272V676.57728A219.42272 219.42272 0 0 0 219.42272 896h585.15456A219.42272 219.42272 0 0 0 1024 676.57728v-585.15456A219.42272 219.42272 0 0 0 804.57728-128z m-375.68512 365.85472l-83.27168 70.98368 488.36608 34.16064a67.584 67.584 0 0 1 59.8016 34.4064c11.6736 21.21728 9.87136 46.85824-4.62848 66.31424a67.584 67.584 0 0 1-64.02048 25.72288l-488.36608-34.16064L409.35424 517.12a62.34112 62.34112 0 0 1-6.26688 89.45664 65.08544 65.08544 0 0 1-47.104 15.40096c-17.24416-1.2288-33.30048-9.09312-44.4416-21.83168L141.39392 408.576l0.24576-3.2768a61.56288 61.56288 0 0 1-18.92352-48.49664c1.2288-17.94048 10.52672-34.48832 25.47712-45.38368l0.2048-3.2768 195.1744-166.0928c12.82048-11.0592 29.81888-16.62976 47.104-15.44192 17.24416 1.2288 33.30048 9.09312 44.4416 21.83168a62.34112 62.34112 0 0 1-6.22592 89.45664z"  horiz-adv-x="1024" />

    
    <glyph glyph-name="myasset" unicode="&#58901;" d="M35.838622 567.2692589999999l437.585631-217.394716v1.811623c10.751586-7.207107 25.087035-12.602592 39.461867-12.602592 14.335449 0 28.670897 5.395485 39.461867 12.602592v-1.811623l437.546248 215.583093v1.811623c19.69155 10.751586 34.066382 30.521903 34.066382 52.064459 0 21.581939-14.335449 41.352256-34.066382 52.103842v1.811623L552.347987 888.832276v-1.811623C541.517634 894.188377 527.221568 896 512.88612 896c-14.374832 0-28.71028-5.395485-39.461867-12.602592V885.248414L34.066382 673.249183v-1.811623C14.374832 660.685974 0 640.915657 0 619.333718c0-21.542556 16.147071-39.50125 35.838622-52.064459z m914.593746-118.543133c-28.670897 0-41.234106-12.602592-41.234106-12.602592l-396.312142-192.189531-398.123765 193.96177c-10.751586 7.207107-25.087035 7.207107-39.461867 8.979347-50.213453 5.395485-73.488866-28.749663-73.488865-64.667051 0-21.542556 14.335449-41.312873 34.066382-52.064459l437.546248-217.394716v1.811623c10.751586-7.207107 25.087035-12.602592 39.461867-12.602592 14.335449 0 28.670897 5.395485 39.461867 12.602592v-1.811623l437.546248 210.187608c19.69155 10.79097 34.066382 34.145148 34.066382 55.687705 0 37.72901-32.294143 70.101919-73.528249 70.101919z m0-231.769547c-28.670897 0-41.234106-12.602592-41.234106-12.602593l-396.312142-190.377908L114.762355 207.97723199999996c-10.751586 7.167724-25.087035 7.167724-39.461867 8.979347-50.213453 5.395485-73.488866-28.749663-73.488865-64.667052 0-21.581939 14.335449-41.352256 34.066382-52.103842l437.546248-217.394715v1.811622c10.751586-7.167724 25.087035-12.563209 39.461867-12.563209 14.335449 0 28.670897 5.395485 39.461867 12.602592v-1.811622l437.546248 210.187608c19.69155 10.751586 34.066382 34.105765 34.066382 55.687704 0 37.689627-32.294143 68.250913-73.528249 68.250914z"  horiz-adv-x="1024" />

    
    <glyph glyph-name="myneed" unicode="&#58902;" d="M819.2 896H204.8C92.16 896 0 803.84 0 691.2v-614.4C0-35.84000000000003 92.16-128 204.8-128h614.4c112.64 0 204.8 92.16 204.8 204.8V691.2C1024 803.84 931.84 896 819.2 896z m-209.92-808.96c0-20.48-15.36-30.72-30.72-30.72h-133.12c-20.48 0-30.72 15.36-30.72 30.72v30.72h194.56v-30.72z m30.72 204.8v-71.68c0-20.48-15.36-30.72-30.72-30.72H409.6c-20.48 0-30.72 15.36-30.72 30.72v71.68c-61.44 40.96-97.28 107.52-97.28 189.44 0 128 102.4 230.4 230.4 230.4 128 0 230.4-102.4 230.4-230.4-5.12-76.8-40.96-148.48-102.4-189.44z"  horiz-adv-x="1024" />

    
    <glyph glyph-name="myfile" unicode="&#58903;" d="M1038.929004-127.56906800000002H76.586348S0-139.643685 0-35.96411699999999V802.133724S1.70666 895.488002 95.359603 895.488002h337.235928s40.874496 8.618631 74.922354-44.927813a2777.076429 2777.076429 0 0 0 51.114454-84.69298s11.946617-13.823942 39.167837-13.823943H1032.102366s76.629014 8.661297 76.629014-77.738342v-715.474352s11.946617-86.39964-69.845042-86.39964zM967.334636 529.110862c0 20.735914-17.066596 38.015842-37.503844 38.015842H180.521914a38.442506 38.442506 0 0 1-39.167836-37.973175v-3.498653c0-22.442573 17.066596-39.722501 39.167836-39.722501h749.351545c20.479915 0 37.503844 17.279928 37.503844 39.722501v3.455986z"  horiz-adv-x="1109" />

    
    <glyph glyph-name="mycollect" unicode="&#58904;" d="M991.653138 396.164512c30.19484 30.19484 39.492121 76.681246 25.588847 116.216015-13.98857 41.837766-46.486406 72.075254-88.36682 79.069539l-185.988273 32.540485c-20.897559 4.648641-37.189125 16.248918-46.486407 34.886129l-88.36682 172.042351C591.784747 872.714149 554.552974 896 512.715208 896c-41.837766 0-79.026891-23.243203-99.967097-62.777973L326.726935 661.179676c-9.297281-18.594563-27.891844-32.540484-46.486406-34.886129l-185.988274-32.540484C52.414489 586.801426 19.874005 556.563938 5.928083 514.726172a117.026329 117.026329 0 0 1 25.588848-116.258664l130.161937-139.501867c13.945922-13.945922 20.897559-37.189125 18.594563-58.129332l-27.891844-192.982559c-6.994285-41.795118 11.600278-86.021176 44.18341-111.567375 18.594563-13.945922 41.795118-23.243203 65.080969-23.243203a116.002775 116.002775 0 0 1 48.832051 11.600278l169.696707 86.021175a64.014767 64.014767 0 0 0 58.129332 0l169.739355-86.021175a110.79971 110.79971 0 0 1 116.216016 9.297281c32.540484 25.588848 51.177695 67.426613 44.18341 111.610023l-25.588848 192.982559c-2.345644 20.897559 4.648641 41.795118 18.594563 58.086683l130.204586 139.501868z"  horiz-adv-x="1024" />

    
    <glyph glyph-name="mypresale" unicode="&#58905;" d="M960-128h-53.333333V680.405333h53.333333c58.88 0 106.666667-48.213333 106.666667-107.776v-592.853333C1066.666667-79.74400000000003 1018.88-128 960-128zM213.333333 680.405333h106.666667V788.224C320 847.744 367.786667 896 426.666667 896h213.333333c58.88 0 106.666667-48.256 106.666667-107.776v-107.818667H853.333333V-128H213.333333V680.405333z m213.333334 0h213.333333V788.224h-213.333333v-107.818667zM0-20.181332999999995V572.586667c0 59.52 47.786667 107.776 106.666667 107.776h53.333333V-128H106.666667C47.786667-128 0-79.74400000000003 0-20.224000000000046z"  horiz-adv-x="1066" />

    
    <glyph glyph-name="downloads" unicode="&#58907;" d="M896 896A128 128 0 0 0 1024 768v-768A128 128 0 0 0 896-128H128A128 128 0 0 0 0 0V768A128 128 0 0 0 128 896h768z m-378.840615-69.001846c-243.081846 0-440.162462-197.080615-440.162462-440.162462 0-243.081846 197.080615-440.162462 440.162462-440.162461 243.081846 0 440.162462 197.080615 440.162461 440.162461 0 243.081846-197.080615 440.162462-440.162461 440.162462z m0-826.210462c-212.361846 0-385.102769 173.568-385.10277 385.969231 0 212.322462 172.740923 385.063385 385.10277 385.063385s385.102769-172.740923 385.102769-385.10277c0-212.283077-172.740923-385.929846-385.102769-385.929846zM333.390769 418.500923a21.425231 21.425231 0 0 1 0-30.444308l162.185846-160.886153a21.661538 21.661538 0 0 1 32.059077 0l162.185846 160.886153a21.425231 21.425231 0 0 1-9.64923 36.155077 21.819077 21.819077 0 0 1-21.031385-5.710769l-125.833846-124.849231V608.6892310000001a21.622154 21.622154 0 0 1-21.700923 21.504 21.622154 21.622154 0 0 1-21.700923-21.504v-314.958769l-125.833846 124.84923a21.858462 21.858462 0 0 1-30.72 0z m404.873846-280.654769a21.622154 21.622154 0 0 1 21.188923 21.504 21.622154 21.622154 0 0 1-21.149538 21.504H284.987077a21.622154 21.622154 0 0 1-21.661539-21.504c0-11.894154 9.688615-21.504 21.661539-21.504h453.316923z"  horiz-adv-x="1024" />

    


  </font>
</defs>
</svg>
